<svg width="26" height="27" viewBox="0 0 26 27" fill="none" xmlns="http://www.w3.org/2000/svg">
<path d="M22.7049 3.14537H18.8992V1.23985C18.8992 1.07139 18.8324 0.909832 18.7134 0.790714C18.5945 0.671595 18.4331 0.604675 18.2649 0.604675C18.0967 0.604675 17.9354 0.671595 17.8164 0.790714C17.6975 0.909832 17.6306 1.07139 17.6306 1.23985V3.14537H8.75075V1.23985C8.75075 1.07139 8.68392 0.909832 8.56497 0.790714C8.44602 0.671595 8.28469 0.604675 8.11647 0.604675C7.94825 0.604675 7.78692 0.671595 7.66797 0.790714C7.54902 0.909832 7.48219 1.07139 7.48219 1.23985V3.14537H3.67652C2.83572 3.14638 2.02965 3.48131 1.43512 4.07668C0.840585 4.67205 0.506134 5.47926 0.505127 6.32124V22.8358C0.506134 23.6778 0.840585 24.485 1.43512 25.0803C2.02965 25.6757 2.83572 26.0106 3.67652 26.0117H22.7049C23.5458 26.011 24.352 25.6762 24.9466 25.0807C25.5412 24.4853 25.8756 23.6779 25.8763 22.8358V6.32124C25.8756 5.47916 25.5412 4.67175 24.9466 4.07631C24.352 3.48086 23.5458 3.14605 22.7049 3.14537ZM24.6077 22.8358C24.6077 23.3412 24.4072 23.8258 24.0504 24.1832C23.6935 24.5405 23.2095 24.7413 22.7049 24.7413H3.67652C3.17186 24.7413 2.68786 24.5405 2.33101 24.1832C1.97416 23.8258 1.77368 23.3412 1.77368 22.8358V12.0378H24.6077V22.8358ZM24.6077 10.7675H1.77368V6.32124C1.77368 5.2694 2.62362 4.41572 3.67652 4.41572H7.48219V6.32124C7.48219 6.4897 7.54902 6.65126 7.66797 6.77038C7.78692 6.8895 7.94825 6.95642 8.11647 6.95642C8.28469 6.95642 8.44602 6.8895 8.56497 6.77038C8.68392 6.65126 8.75075 6.4897 8.75075 6.32124V4.41572H17.6306V6.32124C17.6306 6.4897 17.6975 6.65126 17.8164 6.77038C17.9354 6.8895 18.0967 6.95642 18.2649 6.95642C18.4331 6.95642 18.5945 6.8895 18.7134 6.77038C18.8324 6.65126 18.8992 6.4897 18.8992 6.32124V4.41572H22.7049C23.2095 4.41572 23.6935 4.61648 24.0504 4.97384C24.4072 5.33119 24.6077 5.81587 24.6077 6.32124V10.7675Z" fill="#444444"/>
</svg>
