<svg width="27" height="29" viewBox="0 0 27 29" fill="none" xmlns="http://www.w3.org/2000/svg">
<path d="M25.8997 17.9199L23.2582 15.3421V11.9273C23.2551 9.56737 22.3555 7.29241 20.7334 5.54226C19.1112 3.79211 16.8816 2.69111 14.4758 2.45216V0.5H12.5242V2.45216C10.1184 2.69111 7.88886 3.79211 6.26668 5.54226C4.6445 7.29241 3.74492 9.56737 3.74189 11.9273V15.3421L1.10037 17.9199C0.917353 18.0984 0.814508 18.3406 0.814453 18.5932V21.45C0.814453 21.7025 0.917262 21.9447 1.10026 22.1233C1.28326 22.3019 1.53146 22.4022 1.79027 22.4022H8.62096V23.1422C8.59973 24.3502 9.03607 25.5235 9.84637 26.4371C10.6567 27.3506 11.7839 27.9403 13.0121 28.093C13.6905 28.1587 14.3754 28.085 15.0229 27.8768C15.6703 27.6687 16.2659 27.3305 16.7715 26.8842C17.277 26.4379 17.6812 25.8933 17.958 25.2854C18.2349 24.6775 18.3783 24.0198 18.3791 23.3545V22.4022H25.2098C25.4686 22.4022 25.7168 22.3019 25.8998 22.1233C26.0828 21.9447 26.1856 21.7025 26.1856 21.45V18.5932C26.1855 18.3406 26.0827 18.0984 25.8997 17.9199ZM16.4275 23.3545C16.4275 24.1122 16.119 24.8388 15.57 25.3746C15.021 25.9103 14.2764 26.2113 13.5 26.2113C12.7236 26.2113 11.979 25.9103 11.43 25.3746C10.881 24.8388 10.5726 24.1122 10.5726 23.3545V22.4022H16.4275V23.3545ZM24.234 20.4977H2.76608V18.9874L5.4076 16.4096C5.59062 16.2311 5.69346 15.9889 5.69352 15.7363V11.9273C5.69352 9.90679 6.51599 7.96908 7.97999 6.5404C9.44399 5.11171 11.4296 4.30908 13.5 4.30908C15.5704 4.30908 17.556 5.11171 19.0201 6.5404C20.4841 7.96908 21.3065 9.90679 21.3065 11.9273V15.7363C21.3066 15.9889 21.4094 16.2311 21.5924 16.4096L24.234 18.9874V20.4977Z" fill="#444444"/>
</svg>
